{
	"asset":{
		"version":"2.0",
		"generator":"Houdini GLTF 2.0 Exporter"
	},
	"accessors":[
		{
			"bufferView":0,
			"componentType":5121,
			"count":48,
			"type":"SCALAR",
			"min":[0
			],
			"max":[11
			]
		},
		{
			"bufferView":1,
			"componentType":5126,
			"count":12,
			"type":"VEC3",
			"min":[-0.264054,0.582000017,-0.235528007
			],
			"max":[0.250292003,0.585796714,0.233755007
			]
		},
		{
			"bufferView":2,
			"componentType":5123,
			"count":900,
			"type":"SCALAR",
			"min":[0
			],
			"max":[151
			]
		},
		{
			"bufferView":3,
			"componentType":5126,
			"count":152,
			"type":"VEC3",
			"min":[-0.37349999,0.0598750114,-0.37349999
			],
			"max":[0.37349999,0.581450224,0.37349999
			]
		},
		{
			"bufferView":4,
			"componentType":5123,
			"count":3912,
			"type":"SCALAR",
			"min":[0
			],
			"max":[655
			]
		},
		{
			"bufferView":5,
			"componentType":5126,
			"count":656,
			"type":"VEC3",
			"min":[-0.5,0,-0.5
			],
			"max":[0.5,0.730646968,0.500458241
			]
		}
	],
	"buffers":[
		{
			"uri":"logo_cube_data.bin",
			"byteLength":19512,
			"name":"main_buffer"
		}
	],
	"bufferViews":[
		{
			"buffer":0,
			"byteLength":48,
			"target":34963
		},
		{
			"buffer":0,
			"byteOffset":48,
			"byteLength":144,
			"target":34962
		},
		{
			"buffer":0,
			"byteOffset":192,
			"byteLength":1800,
			"target":34963
		},
		{
			"buffer":0,
			"byteOffset":1992,
			"byteLength":1824,
			"target":34962
		},
		{
			"buffer":0,
			"byteOffset":3816,
			"byteLength":7824,
			"target":34963
		},
		{
			"buffer":0,
			"byteOffset":11640,
			"byteLength":7872,
			"target":34962
		}
	],
	"nodes":[
		{
			"name":"logo_cube",
			"mesh":0
		}
	],
	"meshes":[
		{
			"primitives":[
				{
					"attributes":{
						"POSITION":1
					},
					"indices":0,
					"material":0
				},
				{
					"attributes":{
						"POSITION":3
					},
					"indices":2,
					"material":1
				},
				{
					"attributes":{
						"POSITION":5
					},
					"indices":4,
					"material":2
				}
			]
		}
	],
	"materials":[
		{
			"name":"approve",
			"pbrMetallicRoughness":{
				"baseColorFactor":[0.00625000009,0.00625000009,0.00625000009,1
				],
				"metallicFactor":0,
				"roughnessFactor":0.300000012
			}
		},
		{
			"name":"paper",
			"pbrMetallicRoughness":{
				"baseColorFactor":[0.75,0.75,0.75,1
				],
				"metallicFactor":0,
				"roughnessFactor":0.300000012
			}
		},
		{
			"name":"box",
			"pbrMetallicRoughness":{
				"baseColorFactor":[0,0.256000012,0.574999988,1
				],
				"metallicFactor":0,
				"roughnessFactor":0.300000012
			}
		}
	],
	"scenes":[
		{
			"nodes":[0
			]
		}
	],
	"scene":0
}
